<?xml version="1.0" encoding="UTF-8" standalone="no"?>
<!-- Created with Inkscape (http://www.inkscape.org/) -->

<svg
   xmlns:dc="http://purl.org/dc/elements/1.1/"
   xmlns:cc="http://creativecommons.org/ns#"
   xmlns:rdf="http://www.w3.org/1999/02/22-rdf-syntax-ns#"
   xmlns:svg="http://www.w3.org/2000/svg"
   xmlns="http://www.w3.org/2000/svg"
   xmlns:sodipodi="http://sodipodi.sourceforge.net/DTD/sodipodi-0.dtd"
   xmlns:inkscape="http://www.inkscape.org/namespaces/inkscape"
   width="100"
   height="100"
   id="svg2985"
   version="1.1"
   inkscape:version="0.48.1 r9760"
   sodipodi:docname="logo.svg">
  <defs
     id="defs2987" />
  <sodipodi:namedview
     id="base"
     pagecolor="#ffffff"
     bordercolor="#666666"
     borderopacity="1.0"
     inkscape:pageopacity="0.0"
     inkscape:pageshadow="2"
     inkscape:zoom="5.5"
     inkscape:cx="47.492845"
     inkscape:cy="49.744447"
     inkscape:current-layer="layer1"
     showgrid="true"
     inkscape:document-units="px"
     inkscape:grid-bbox="true"
     inkscape:window-width="1409"
     inkscape:window-height="870"
     inkscape:window-x="151"
     inkscape:window-y="134"
     inkscape:window-maximized="0" />
  <metadata
     id="metadata2990">
    <rdf:RDF>
      <cc:Work
         rdf:about="">
        <dc:format>image/svg+xml</dc:format>
        <dc:type
           rdf:resource="http://purl.org/dc/dcmitype/StillImage" />
      </cc:Work>
    </rdf:RDF>
  </metadata>
  <g
     id="layer1"
     inkscape:label="Layer 1"
     inkscape:groupmode="layer"
     transform="translate(0,36)">
    <g
       transform="matrix(1.9889812,0,0,1.9889812,-5.5804193,-47.554815)"
       style="font-size:50px;font-style:normal;font-weight:normal;text-align:center;line-height:125%;letter-spacing:0px;word-spacing:0px;text-anchor:middle;fill:#000000;fill-opacity:1;stroke:none;font-family:serif"
       id="flowRoot2993">
      <path
         d="m 48.300781,40.381403 c -1.074253,3.401699 -2.880891,5.981449 -5.419922,7.739258 -2.522813,1.741537 -5.721052,2.612304 -9.594726,2.612305 -2.37632,-10e-7 -4.581722,-0.406901 -6.616211,-1.220703 C 24.635405,48.698462 22.828766,47.502174 21.25,45.923396 19.427077,44.100485 18.068029,42.03343 17.172852,39.722224 c -0.87891,-2.327462 -1.318363,-4.95604 -1.31836,-7.885743 -3e-6,-5.664038 1.635738,-10.229463 4.907227,-13.696289 3.271473,-3.483037 7.58462,-5.224572 12.939453,-5.224609 1.985654,3.7e-5 4.101538,0.260454 6.347656,0.78125 2.246065,0.520869 4.663054,1.310256 7.250977,2.368164 l 0,8.398438 -2.758789,0 c -0.602245,-3.059868 -1.814809,-5.314097 -3.637696,-6.762696 -1.806666,-1.448534 -4.345726,-2.172817 -7.617187,-2.172851 -3.88999,3.4e-5 -6.835951,1.383496 -8.837891,4.15039 -2.001962,2.750679 -3.002938,6.803409 -3.00293,12.158203 -8e-6,5.338555 1.000968,9.391285 3.00293,12.158204 2.00194,2.750654 4.947901,4.125978 8.837891,4.125976 2.718076,2e-6 4.956029,-0.642901 6.713867,-1.928711 1.757784,-1.302078 3.027314,-3.238925 3.808594,-5.810547 l 4.492187,0"
         style=""
         id="path3843" />
    </g>
    <rect
       style="fill:#ffaa00;fill-opacity:0.25098039;fill-rule:nonzero;stroke:#ffaa00;stroke-width:0.9647997;stroke-miterlimit:4;stroke-opacity:1;stroke-dasharray:none"
       id="rect3001"
       width="50.52042"
       height="38.732323"
       x="47.275303"
       y="-30.00598" />
    <rect
       style="fill:#ff00aa;fill-opacity:0.25098039;fill-rule:nonzero;stroke:#ff00aa;stroke-width:0.9647997;stroke-miterlimit:4;stroke-opacity:1;stroke-dasharray:none"
       id="rect3001-7"
       width="52.25174"
       height="59.02898"
       x="2.2042763"
       y="-27.082609" />
    <rect
       style="fill:#aaff00;fill-opacity:0.25098039;fill-rule:nonzero;stroke:#aaff00;stroke-width:0.9647997;stroke-miterlimit:4;stroke-opacity:1;stroke-dasharray:none"
       id="rect3001-4"
       width="46.774914"
       height="27.408752"
       x="47.744713"
       y="26.597227" />
  </g>
</svg>
